<?xml version="1.0" standalone="no"?>
<!DOCTYPE svg PUBLIC "-//W3C//DTD SVG 20010904//EN"
 "http://www.w3.org/TR/2001/REC-SVG-20010904/DTD/svg10.dtd">
<svg version="1.0" xmlns="http://www.w3.org/2000/svg"
 width="720.000000pt" height="720.000000pt" viewBox="0 0 720.000000 720.000000"
 preserveAspectRatio="xMidYMid meet">
<metadata>
Created by potrace 1.14, written by Peter Selinger 2001-2017
</metadata>
<g transform="translate(0.000000,720.000000) scale(0.100000,-0.100000)"
fill="#000000" stroke="none">
<path d="M3375 7194 c-625 -51 -1173 -226 -1665 -532 -809 -503 -1380 -1287
-1604 -2202 -75 -309 -101 -525 -101 -860 0 -259 9 -377 46 -595 159 -947 685
-1785 1469 -2341 491 -349 1034 -556 1675 -641 182 -24 628 -24 810 0 414 55
750 149 1105 311 593 270 1117 720 1488 1277 320 479 514 1021 584 1624 16
142 16 588 0 730 -70 607 -264 1144 -588 1630 -585 878 -1521 1451 -2579 1580
-125 15 -536 27 -640 19z m-678 -2323 c5 -19 67 -51 98 -51 9 0 15 9 15 24 0
46 15 48 196 31 245 -22 232 -19 459 -100 66 -24 197 -64 290 -90 94 -25 193
-57 222 -71 95 -46 165 -135 272 -344 76 -148 116 -248 135 -341 9 -41 20 -89
25 -107 6 -18 8 -39 5 -45 -7 -18 13 -39 92 -96 80 -57 114 -96 199 -226 65
-99 140 -185 161 -185 17 0 18 24 14 281 -1 121 1 189 8 193 6 4 8 28 5 61
l-6 54 34 8 c29 8 35 14 40 49 4 21 4 40 0 42 -3 1 -21 11 -38 22 l-33 20 0
299 0 300 261 0 c252 1 299 -4 299 -31 0 -5 13 -26 30 -44 16 -19 34 -53 41
-76 13 -51 -6 -1651 -21 -1777 -12 -90 -19 -118 -54 -191 -20 -43 -27 -81 -35
-173 -6 -78 -14 -126 -25 -142 -13 -20 -14 -30 -5 -46 6 -11 8 -23 6 -26 -20
-19 -488 -3 -514 18 -18 16 -16 26 7 32 11 3 20 10 20 15 0 11 -47 25 -59 17
-10 -5 -209 327 -412 685 -73 129 -177 309 -231 399 -117 193 -137 232 -131
249 3 7 -1 11 -8 10 -11 -3 -68 84 -69 105 0 11 58 9 65 -3 3 -5 26 -10 51
-10 35 0 44 3 44 18 0 22 -25 59 -51 72 -27 15 -139 21 -139 8 0 -6 -9 -8 -20
-5 -15 4 -22 -1 -26 -19 -7 -29 9 -73 49 -133 50 -74 56 -112 56 -344 0 -227
5 -265 51 -420 41 -136 40 -203 -5 -387 -20 -79 -47 -165 -61 -191 -29 -52
-85 -103 -124 -111 -122 -27 -364 -87 -495 -123 -115 -31 -201 -48 -305 -59
-230 -24 -267 -26 -247 -15 23 13 22 29 -3 29 -18 0 -20 7 -20 65 0 37 4 65
10 65 6 0 10 16 10 35 0 34 20 49 35 25 9 -15 51 -12 64 4 8 10 4 23 -20 56
-28 38 -30 47 -24 89 7 46 37 91 62 91 12 0 15 10 17 57 1 10 -9 20 -24 24
-24 6 -24 6 10 16 27 7 36 7 38 -4 5 -21 21 -15 52 20 16 19 56 48 88 65 35
19 85 59 119 95 33 36 72 68 89 72 21 6 24 9 12 12 -23 6 -23 16 2 38 18 17
20 31 20 174 0 86 3 247 7 358 7 228 9 235 80 246 44 7 79 38 70 62 -8 20 -38
19 -81 -1 -55 -27 -66 -16 -64 65 0 39 5 68 9 65 4 -2 6 -11 3 -18 -8 -21 54
-26 90 -7 17 9 32 17 34 17 7 4 -26 70 -41 83 -14 11 -20 11 -33 0 -26 -22
-53 24 -54 91 -1 114 -121 268 -286 364 -68 40 -128 62 -251 95 -36 10 -43 16
-43 36 0 14 -5 25 -12 25 -6 0 -52 -26 -102 -58 -50 -32 -118 -74 -150 -92
-65 -37 -151 -104 -197 -153 -48 -52 -117 -169 -154 -259 -48 -119 -115 -400
-115 -482 0 -68 54 -325 85 -406 39 -99 140 -254 215 -330 79 -80 193 -170
215 -170 8 0 17 -10 20 -21 4 -12 22 -42 41 -66 62 -81 77 -183 38 -258 -8
-16 -11 -32 -5 -39 13 -18 1 -86 -16 -86 -12 0 -13 9 -8 43 l7 42 -28 -27
c-32 -29 -92 -58 -123 -58 -26 0 -33 -13 -22 -43 13 -34 -2 -47 -42 -37 -18 5
-57 14 -88 20 -52 10 -56 13 -51 35 3 20 -1 27 -24 35 -15 6 -33 9 -40 6 -7
-3 -18 2 -24 10 -16 18 -36 18 -44 -1 -20 -52 -189 41 -373 204 -86 77 -92 84
-86 113 6 29 5 31 -20 24 -23 -5 -30 0 -56 38 -25 35 -28 45 -16 50 8 3 15 12
15 20 0 20 -28 28 -38 10 -6 -11 -15 -5 -40 30 -18 24 -32 51 -32 60 0 8 -11
27 -25 42 -30 33 -105 221 -105 265 0 34 24 69 47 69 7 0 13 10 14 23 0 12 3
17 5 11 6 -16 44 -5 44 11 0 7 6 15 13 18 8 3 9 8 2 15 -12 12 -91 19 -101 9
-4 -4 -20 -7 -35 -7 -33 0 -44 16 -54 84 l-7 49 26 -16 c43 -29 56 -22 56 27
0 25 5 48 10 51 6 3 10 11 10 17 0 6 -10 4 -24 -5 -26 -17 -36 -13 -36 14 0
10 -10 23 -22 30 -20 11 -21 10 -15 -37 5 -39 4 -44 -4 -24 -16 40 -22 257
-10 345 7 44 14 103 17 130 16 167 89 372 208 583 89 159 289 346 488 455 173
96 409 161 596 166 45 1 55 -2 59 -18z m2217 -917 c22 -22 20 -44 -4 -44 -23
0 -35 22 -26 45 7 19 11 19 30 -1z m-3504 -1009 c0 -1 -7 -8 -15 -15 -13 -10
-15 -9 -15 8 0 15 5 20 15 16 8 -4 15 -7 15 -9z m1430 -607 c0 -16 -3 -19 -11
-11 -6 6 -8 16 -5 22 11 17 16 13 16 -11z m-10 -143 c0 -19 -4 -37 -10 -40 -6
-4 -10 12 -10 40 0 28 4 44 10 40 6 -3 10 -21 10 -40z m-162 -237 c5 -7 13
-23 16 -34 6 -20 2 -22 -34 -26 -34 -3 -43 0 -56 20 -8 12 -19 20 -24 17 -6
-4 -10 -2 -10 4 0 23 91 39 108 19z"/>
<path d="M4936 3653 c-12 -12 -5 -23 14 -23 11 0 20 4 20 9 0 11 -26 22 -34
14z"/>
<path d="M1540 2945 c0 -8 -4 -15 -9 -15 -6 0 -13 -20 -17 -45 -6 -45 -6 -45
-40 -39 -29 5 -34 3 -34 -12 0 -22 95 -80 105 -65 3 6 -1 27 -10 47 -14 33
-13 36 1 30 27 -10 46 12 32 37 -6 12 -11 34 -10 49 0 15 -4 28 -9 28 -5 0 -9
-7 -9 -15z"/>
<path d="M1670 2441 c0 -20 17 -37 27 -28 7 8 -7 47 -18 47 -5 0 -9 -9 -9 -19z"/>
<path d="M1752 2373 c3 -17 23 -24 41 -15 12 6 -13 32 -30 32 -8 0 -13 -7 -11
-17z"/>
<path d="M2960 2270 c0 -5 7 -10 15 -10 8 0 15 5 15 10 0 6 -7 10 -15 10 -8 0
-15 -4 -15 -10z"/>
<path d="M1910 2182 c0 -30 33 -52 78 -52 23 0 42 5 42 10 0 6 -13 10 -30 10
-16 0 -33 6 -37 14 -4 7 -18 18 -30 25 -20 10 -23 9 -23 -7z"/>
<path d="M2046 2094 c-14 -36 -3 -44 30 -19 16 13 17 16 4 25 -21 14 -27 13
-34 -6z"/>
</g>
</svg>
